<svg width="1031" height="474" viewBox="0 0 1031 474" fill="none" xmlns="http://www.w3.org/2000/svg">
<g clip-path="url(#clip0_934_2)">
<path d="M599.534 203.684H580.151C578.456 203.684 577.079 202.282 577.079 200.556V157.736C577.079 156.011 578.456 154.608 580.151 154.608H599.534C601.229 154.608 602.606 156.011 602.606 157.736V200.556C602.5 202.282 601.123 203.684 599.534 203.684Z" fill="#C8C6C4"/>
<path d="M696.451 203.792H679.716C677.386 203.792 675.373 201.743 675.373 199.37V138.43C675.373 136.057 677.386 134.007 679.716 134.007H696.451C698.781 134.007 700.794 136.057 700.794 138.43V199.37C700.794 201.743 698.781 203.792 696.451 203.792Z" fill="#C8C6C4"/>
<path d="M648.046 203.684H629.933C627.921 203.684 626.226 202.066 626.226 199.909V114.916C626.226 112.867 627.815 111.141 629.933 111.141H648.046C650.058 111.141 651.753 112.759 651.753 114.916V199.909C651.647 202.066 649.952 203.684 648.046 203.684Z" fill="#5EC3EF"/>
<path d="M745.598 203.792H727.804C725.897 203.792 724.415 202.282 724.415 200.341V104.022C724.415 102.081 725.897 100.571 727.804 100.571H745.598C747.505 100.571 748.988 102.081 748.988 104.022V200.341C748.988 202.174 747.505 203.792 745.598 203.792Z" fill="#5EC3EF"/>
<path d="M751 20L718.271 32.0802L732.04 41.8954C731.617 42.219 731.299 42.5426 730.981 42.974L687.024 115.995L638.407 77.3811L578.033 138.214C576.656 139.616 576.656 141.881 578.033 143.175C578.774 143.93 579.622 144.146 580.469 144.146C581.316 144.146 582.27 143.822 582.905 143.175L638.937 86.657L688.825 126.241L736.807 46.4255C737.019 46.1019 737.124 45.6705 737.23 45.4548L750.788 55.2699L751 20Z" fill="url(#paint0_linear_934_2)"/>
<g clip-path="url(#clip1_934_2)">
<path d="M758.355 399.604L568.935 421.753C564.603 422.193 560.85 419.113 560.272 414.712L548 307.047C547.567 302.646 550.599 298.833 554.93 298.246L744.495 276.243C748.826 275.803 752.58 278.884 753.157 283.284L765.429 390.803C765.718 395.203 762.686 399.164 758.355 399.604Z" fill="url(#paint1_linear_934_2)"/>
<path d="M727.459 316.729L581.784 333.597C579.33 333.89 577.02 331.984 576.731 329.49C576.442 326.996 578.319 324.649 580.774 324.356L726.448 307.341C728.902 307.048 731.212 308.954 731.501 311.448C731.79 314.088 729.913 316.435 727.459 316.729Z" fill="#C8C6C4"/>
<path d="M733.234 366.161L678.516 372.468C676.061 372.761 673.751 370.854 673.462 368.361C673.174 365.867 675.051 363.52 677.505 363.227L732.223 356.919C734.677 356.626 736.987 358.533 737.276 361.027C737.421 363.667 735.688 366.014 733.234 366.161Z" fill="#C8C6C4"/>
<path d="M660.324 374.815L587.415 383.323C584.961 383.616 582.651 381.709 582.362 379.216C582.073 376.722 583.95 374.375 586.404 374.082L659.314 365.574C661.768 365.281 664.078 367.188 664.367 369.681C664.656 372.175 662.779 374.375 660.324 374.815Z" fill="#C8C6C4"/>
<path d="M621.054 354.28L584.672 358.533C582.217 358.827 579.907 356.92 579.619 354.426C579.33 351.933 581.207 349.586 583.661 349.292L620.044 345.039C622.498 344.745 624.808 346.652 625.097 349.146C625.386 351.639 623.509 353.986 621.054 354.28Z" fill="#C8C6C4"/>
<path d="M703.781 344.452L638.668 352.226C636.214 352.519 633.904 350.613 633.615 348.119C633.326 345.625 635.203 343.278 637.657 342.985L702.915 335.357C705.369 335.064 707.679 336.971 707.968 339.465C708.112 341.958 706.235 344.305 703.781 344.452Z" fill="#C8C6C4"/>
<path d="M683.279 461.064L704.358 456.517L716.774 474.412L743.628 404.591L710.133 391.243L683.279 461.064Z" fill="#1493DF"/>
<path d="M775.679 459.011L754.456 455.931L743.051 474.413L712.299 406.352L744.783 391.097L775.679 459.011Z" fill="#1493DF"/>
<path d="M774.958 393.737C774.958 397.844 768.461 400.924 767.45 404.591C766.44 408.405 770.482 414.419 768.605 417.793C766.584 421.167 759.51 420.58 756.911 423.367C754.168 426.154 754.745 433.488 751.425 435.248C748.104 437.302 742.329 433.048 738.431 434.075C734.822 434.955 731.645 441.702 727.747 441.702C723.705 441.702 720.673 435.101 717.063 434.075C713.31 433.048 707.39 437.155 704.07 435.248C700.749 433.195 701.327 426.007 698.583 423.367C695.84 420.58 688.622 421.167 686.889 417.793C684.868 414.419 689.055 408.552 688.044 404.591C687.178 400.924 680.537 397.697 680.537 393.737C680.537 389.776 687.033 386.549 688.044 382.882C689.055 379.069 685.012 373.055 686.889 369.681C688.91 366.307 695.985 366.894 698.583 364.107C701.327 361.32 700.749 353.986 704.07 352.226C707.39 350.172 713.165 354.426 717.063 353.399C720.673 352.519 723.849 345.771 727.747 345.771C731.79 345.771 734.822 352.372 738.431 353.399C742.185 354.426 748.104 350.319 751.425 352.226C754.745 354.279 754.168 361.467 756.911 364.107C759.654 366.894 766.873 366.307 768.605 369.681C770.627 373.055 766.44 378.922 767.45 382.882C768.605 386.549 774.958 389.63 774.958 393.737Z" fill="#0C59A4"/>
<path d="M727.891 413.979C739.008 413.979 748.104 404.738 748.104 393.443C748.104 382.149 739.008 372.908 727.891 372.908C716.774 372.908 707.679 382.149 707.679 393.443C707.679 404.885 716.63 413.979 727.891 413.979Z" fill="url(#paint2_linear_934_2)"/>
<path d="M728.036 373.054C738.431 373.054 747.093 381.122 748.104 391.683C749.115 402.978 740.885 412.952 729.768 413.979C729.191 413.979 728.613 414.125 727.892 414.125C717.497 414.125 708.834 406.058 707.823 395.497C706.813 384.202 715.042 374.228 726.159 373.201C726.737 373.201 727.314 373.054 728.036 373.054ZM728.036 363.667C727.17 363.667 726.159 363.667 725.293 363.813C709.267 365.427 697.14 379.802 698.728 396.23C700.172 411.779 712.588 423.367 727.892 423.367C728.758 423.367 729.768 423.367 730.635 423.22C746.66 421.606 758.788 407.231 757.2 390.803C755.756 375.401 743.195 363.667 728.036 363.667Z" fill="#1493DF"/>
</g>
<path d="M613.782 197.928C612.172 195.668 610.131 193.749 607.775 192.283C605.419 190.817 602.796 189.833 600.058 189.387C590.474 187.727 580.874 186.229 571.256 184.893V116.17C571.268 110.423 569.479 104.816 566.141 100.138C562.802 95.4596 558.081 91.945 552.642 90.0879L552.438 90.0241H552.221L456.803 61.1586C452.516 59.7178 448.023 58.9848 443.5 58.9883C438.982 58.9851 434.493 59.7181 430.21 61.1586L334.779 89.9985H334.562L334.358 90.0624C328.925 91.9173 324.209 95.4261 320.871 100.097C317.533 104.767 315.74 110.366 315.744 116.106V184.829C306.127 186.174 296.526 187.672 286.942 189.323C284.204 189.769 281.581 190.753 279.225 192.219C276.869 193.685 274.828 195.604 273.218 197.864C271.889 199.742 270.95 201.868 270.456 204.116C269.963 206.364 269.925 208.687 270.346 210.95L284.389 284.218C285.369 288.968 288.157 293.151 292.164 295.883C296.171 298.615 301.083 299.683 305.863 298.861C309.182 298.287 312.501 297.75 315.833 297.214C316.025 315.496 323.008 333.255 336.643 350.017C347.048 362.784 361.372 375.065 379.207 386.428C398.17 398.378 418.364 408.252 439.44 415.88L443.628 417.31L447.802 415.842C468.846 408.046 489.01 398.054 507.959 386.032C525.832 374.542 540.093 362.337 550.472 349.609C564.107 332.897 571.103 315.266 571.294 297.265C574.627 297.802 577.946 298.338 581.265 298.912C582.311 299.09 583.37 299.179 584.431 299.18C588.736 299.185 592.91 297.702 596.246 294.982C599.582 292.263 601.876 288.473 602.739 284.256L616.718 211.014C617.129 208.747 617.081 206.421 616.576 204.173C616.072 201.926 615.122 199.802 613.782 197.928Z" fill="#002050"/>
<path d="M328.6 294.801V296.512C328.6 364.597 443.5 403.829 443.5 403.829C443.5 403.829 558.4 363.588 558.4 296.512V295.363C482.217 284.246 404.837 284.056 328.6 294.801Z" fill="#0064B5"/>
<path d="M558.4 183.195V116.643C558.404 113.575 557.448 110.583 555.667 108.086C553.886 105.588 551.369 103.71 548.468 102.714L452.909 73.8232C446.817 71.7464 440.209 71.7464 434.117 73.8232L338.482 102.714C335.59 103.719 333.083 105.6 331.312 108.097C329.541 110.594 328.593 113.581 328.6 116.643V183.195C404.899 173.59 482.101 173.59 558.4 183.195Z" fill="white"/>
<path d="M384.774 159.704C383.329 160.408 381.733 160.745 380.127 160.687C379.061 160.734 377.997 160.553 377.007 160.157C376.016 159.761 375.121 159.158 374.382 158.389C372.908 156.727 372.139 154.557 372.237 152.338C372.186 151.146 372.374 149.955 372.791 148.837C373.208 147.719 373.844 146.695 374.663 145.827C375.451 144.996 376.405 144.339 377.462 143.9C378.52 143.46 379.658 143.247 380.803 143.274C382.16 143.23 383.511 143.464 384.774 143.963V146.057C383.553 145.391 382.181 145.048 380.791 145.061C379.915 145.026 379.042 145.18 378.231 145.513C377.421 145.846 376.691 146.349 376.092 146.989C374.858 148.396 374.213 150.225 374.292 152.096C374.198 153.882 374.802 155.636 375.977 156.985C376.538 157.588 377.221 158.063 377.981 158.378C378.741 158.693 379.56 158.84 380.382 158.811C381.916 158.871 383.436 158.504 384.774 157.751V159.704Z" fill="#17154C"/>
<path d="M401.919 160.406H392.982V143.618H401.511V145.405H394.987V150.985H401.051V152.759H394.987V158.632H401.919V160.406Z" fill="#17154C"/>
<path d="M421.988 160.406H419.652L416.843 155.708C416.621 155.315 416.369 154.94 416.09 154.585C415.876 154.303 415.627 154.05 415.35 153.831C415.097 153.645 414.817 153.498 414.52 153.397C414.2 153.305 413.869 153.262 413.537 153.27H411.915V160.406H409.949V143.618H414.967C415.653 143.61 416.338 143.705 416.996 143.899C417.587 144.063 418.139 144.345 418.618 144.729C419.074 145.112 419.441 145.592 419.69 146.133C420.158 147.272 420.199 148.541 419.805 149.708C419.637 150.175 419.386 150.607 419.065 150.984C418.73 151.371 418.333 151.699 417.89 151.955C417.409 152.241 416.888 152.456 416.345 152.593C416.605 152.706 416.85 152.852 417.073 153.027C417.294 153.19 417.496 153.379 417.673 153.589C417.872 153.823 418.056 154.071 418.222 154.329C418.414 154.61 418.618 154.929 418.848 155.3L421.988 160.406ZM411.915 145.405V151.482H414.584C415.048 151.494 415.511 151.42 415.95 151.265C416.35 151.127 416.719 150.91 417.035 150.627C417.347 150.345 417.592 149.996 417.75 149.606C417.931 149.178 418.018 148.717 418.005 148.252C418.031 147.86 417.967 147.467 417.816 147.104C417.665 146.741 417.433 146.417 417.137 146.159C416.408 145.601 415.498 145.333 414.584 145.405H411.915Z" fill="#17154C"/>
<path d="M437.96 145.405H433.108V160.406H431.142V145.405H426.304V143.618H437.96V145.405Z" fill="#17154C"/>
<path d="M447.33 160.406H445.352V143.618H447.33V160.406Z" fill="#17154C"/>
<path d="M465.114 145.405H458.552V151.214H464.616V152.976H458.552V160.406H456.586V143.618H465.114V145.405Z" fill="#17154C"/>
<path d="M475.059 160.406H473.093V143.618H475.059V160.406Z" fill="#17154C"/>
<path d="M493.188 160.406H484.251V143.618H492.78V145.405H486.23V150.985H492.294V152.759H486.23V158.632H493.163L493.188 160.406Z" fill="#17154C"/>
<path d="M501.218 160.406V143.618H505.853C511.81 143.618 514.789 146.346 514.789 151.802C514.839 152.959 514.646 154.113 514.221 155.191C513.797 156.269 513.151 157.245 512.325 158.057C510.524 159.685 508.149 160.53 505.725 160.406H501.218ZM503.184 145.405V158.632H505.738C506.664 158.686 507.591 158.557 508.468 158.253C509.344 157.948 510.151 157.474 510.844 156.857C511.486 156.199 511.982 155.413 512.3 154.551C512.619 153.689 512.754 152.77 512.695 151.853C512.695 147.55 510.398 145.469 505.827 145.469L503.184 145.405Z" fill="#17154C"/>
<path d="M397.642 129.231H392.612V115.723C392.612 114.268 392.612 112.647 392.804 110.885H392.676C392.507 111.899 392.272 112.901 391.974 113.885L386.689 129.205H382.527L377.114 114.038C376.816 113.001 376.577 111.949 376.399 110.885H376.258C376.399 113.119 376.462 115.072 376.462 116.745V129.231H371.917V106.685H379.36L383.982 120.064C384.331 121.114 384.596 122.189 384.774 123.281H384.863C385.144 122.005 385.45 120.958 385.757 120.026L390.378 106.685H397.642V129.231Z" fill="#17154C"/>
<path d="M404.805 110.514C404.043 110.542 403.301 110.272 402.736 109.761C402.478 109.53 402.273 109.247 402.134 108.929C401.995 108.612 401.926 108.269 401.932 107.923C401.922 107.578 401.989 107.235 402.128 106.919C402.267 106.603 402.475 106.322 402.736 106.097C403.33 105.641 404.057 105.395 404.805 105.395C405.553 105.395 406.28 105.641 406.873 106.097C407.13 106.325 407.334 106.607 407.47 106.922C407.607 107.238 407.673 107.579 407.664 107.923C407.674 108.272 407.609 108.619 407.472 108.941C407.336 109.263 407.131 109.551 406.873 109.787C406.302 110.285 405.562 110.545 404.805 110.514ZM407.256 129.179H402.277V113.068H407.256V129.179Z" fill="#17154C"/>
<path d="M423.661 128.643C422.149 129.376 420.474 129.71 418.797 129.613C417.695 129.663 416.594 129.489 415.561 129.103C414.528 128.717 413.583 128.126 412.784 127.366C412.019 126.61 411.42 125.703 411.025 124.703C410.629 123.703 410.445 122.632 410.486 121.558C410.422 120.367 410.609 119.175 411.033 118.061C411.458 116.946 412.11 115.932 412.95 115.085C413.833 114.273 414.87 113.645 415.999 113.237C417.127 112.83 418.326 112.65 419.524 112.71C420.946 112.611 422.369 112.875 423.661 113.476V117.689C422.659 116.928 421.434 116.519 420.176 116.528C419.552 116.497 418.93 116.595 418.346 116.814C417.761 117.034 417.229 117.371 416.78 117.804C415.99 118.748 415.551 119.935 415.534 121.165C415.518 122.395 415.926 123.593 416.69 124.558C417.128 124.974 417.646 125.296 418.212 125.504C418.778 125.713 419.381 125.803 419.984 125.771C421.285 125.753 422.552 125.349 423.623 124.609L423.661 128.643Z" fill="#17154C"/>
<path d="M437.423 117.6C436.78 117.257 436.058 117.085 435.329 117.102C434.839 117.076 434.35 117.171 433.905 117.378C433.46 117.585 433.072 117.898 432.776 118.289C432.117 119.238 431.793 120.379 431.857 121.532V129.192H426.903V113.068H431.87V116.068C432.103 115.121 432.651 114.281 433.423 113.686C434.195 113.09 435.146 112.773 436.121 112.787C436.555 112.762 436.99 112.827 437.398 112.978L437.423 117.6Z" fill="#17154C"/>
<path d="M447.33 129.664C446.17 129.738 445.006 129.578 443.909 129.192C442.813 128.805 441.805 128.202 440.947 127.417C440.158 126.609 439.546 125.646 439.148 124.589C438.75 123.532 438.576 122.404 438.636 121.277C438.574 120.124 438.755 118.971 439.169 117.893C439.582 116.815 440.219 115.836 441.036 115.021C442.809 113.448 445.129 112.636 447.496 112.761C448.643 112.695 449.792 112.861 450.873 113.249C451.955 113.638 452.947 114.24 453.79 115.021C454.562 115.806 455.163 116.742 455.557 117.77C455.95 118.798 456.126 119.896 456.075 120.996C456.143 122.164 455.97 123.334 455.566 124.432C455.162 125.53 454.535 126.534 453.726 127.379C452.866 128.167 451.858 128.776 450.759 129.168C449.661 129.56 448.495 129.729 447.33 129.664ZM447.458 116.578C446.937 116.55 446.417 116.645 445.94 116.856C445.463 117.066 445.042 117.387 444.713 117.791C444.012 118.79 443.671 119.995 443.743 121.213C443.743 124.311 444.99 125.86 447.483 125.86C449.977 125.86 451.169 124.272 451.058 121.098C451.032 118.051 449.82 116.527 447.419 116.527L447.458 116.578Z" fill="#17154C"/>
<path d="M458.259 128.796V124.775C459.028 125.238 459.851 125.607 460.71 125.873C461.459 126.103 462.237 126.223 463.02 126.23C463.732 126.263 464.442 126.141 465.101 125.873C465.326 125.789 465.519 125.64 465.656 125.443C465.793 125.247 465.867 125.014 465.867 124.775C465.87 124.626 465.841 124.478 465.782 124.341C465.722 124.205 465.634 124.082 465.523 123.983C465.256 123.754 464.954 123.569 464.629 123.434C464.242 123.27 463.846 123.13 463.442 123.013C463.008 122.893 462.582 122.748 462.165 122.579C461.578 122.367 461.01 122.107 460.467 121.8C459.992 121.552 459.561 121.229 459.19 120.842C458.859 120.47 458.603 120.036 458.437 119.566C458.247 119.011 458.157 118.428 458.169 117.842C458.15 117.027 458.358 116.223 458.769 115.519C459.156 114.868 459.695 114.321 460.339 113.923C461.052 113.502 461.835 113.212 462.65 113.068C463.517 112.871 464.404 112.773 465.293 112.774C466.019 112.779 466.744 112.835 467.463 112.94C468.196 113.058 468.921 113.22 469.634 113.425V117.255C469.001 116.88 468.317 116.6 467.604 116.425C466.915 116.25 466.208 116.16 465.497 116.157C465.189 116.155 464.881 116.18 464.578 116.234C464.312 116.284 464.055 116.37 463.812 116.489C463.607 116.587 463.428 116.731 463.289 116.91C463.162 117.084 463.094 117.295 463.097 117.51C463.097 117.787 463.197 118.055 463.378 118.264C463.593 118.482 463.844 118.663 464.118 118.8C464.447 118.963 464.789 119.1 465.14 119.208L466.25 119.579C466.862 119.79 467.459 120.042 468.038 120.332C468.541 120.588 469.006 120.914 469.417 121.302C469.799 121.659 470.099 122.095 470.297 122.579C470.516 123.14 470.62 123.739 470.604 124.341C470.63 125.194 470.417 126.039 469.991 126.779C469.58 127.458 469.011 128.028 468.331 128.439C467.596 128.876 466.794 129.191 465.957 129.371C465.037 129.563 464.1 129.657 463.161 129.651C461.489 129.654 459.83 129.364 458.259 128.796Z" fill="#17154C"/>
<path d="M481.175 129.664C480.014 129.739 478.851 129.578 477.754 129.192C476.657 128.806 475.65 128.202 474.791 127.417C474.007 126.607 473.398 125.643 473.003 124.586C472.607 123.53 472.434 122.403 472.493 121.277C472.429 120.125 472.608 118.972 473.019 117.894C473.431 116.816 474.065 115.837 474.881 115.021C476.659 113.448 478.983 112.637 481.353 112.761C482.5 112.697 483.649 112.865 484.73 113.253C485.811 113.641 486.803 114.242 487.647 115.021C488.415 115.808 489.013 116.745 489.404 117.773C489.795 118.8 489.97 119.897 489.92 120.996C489.988 122.164 489.815 123.334 489.41 124.432C489.006 125.531 488.38 126.534 487.571 127.379C486.711 128.167 485.702 128.776 484.604 129.168C483.505 129.561 482.339 129.729 481.175 129.664ZM481.302 116.579C480.783 116.55 480.265 116.645 479.79 116.856C479.315 117.067 478.897 117.387 478.57 117.791C477.86 118.785 477.513 119.993 477.587 121.213C477.587 124.311 478.838 125.86 481.341 125.86C483.843 125.86 485.03 124.273 484.903 121.098C484.903 118.051 483.703 116.527 481.302 116.527V116.579Z" fill="#17154C"/>
<path d="M503.223 109.238C502.639 108.997 502.015 108.872 501.384 108.867C499.789 108.867 498.997 109.723 498.997 111.421V113.068H502.674V116.745H498.997V129.192H494.031V116.783H491.324V113.068H494.031V111.114C494 110.29 494.146 109.468 494.459 108.704C494.771 107.94 495.243 107.251 495.844 106.684C497.187 105.508 498.937 104.903 500.721 104.999C501.583 104.972 502.445 105.079 503.274 105.318L503.223 109.238Z" fill="#17154C"/>
<path d="M515.428 129.039C514.38 129.481 513.244 129.678 512.108 129.613C508.602 129.613 506.849 127.796 506.849 124.162V116.783H504.231V113.068H506.849V109.633L511.802 108.216V113.068H515.428V116.744H511.802V123.281C511.802 124.953 512.466 125.834 513.806 125.834C514.377 125.821 514.935 125.663 515.428 125.375V129.039Z" fill="#17154C"/>
<path d="M443.5 308.334L450.062 328.505H471.28L454.109 340.978L460.671 361.15L443.5 348.677L426.329 361.15L432.891 340.978L415.72 328.505H436.938L443.5 308.334Z" fill="white"/>
<path d="M613.782 197.928C612.172 195.668 610.131 193.749 607.775 192.283C605.419 190.817 602.796 189.833 600.058 189.387C586.202 187.021 572.316 184.957 558.4 183.195C482.068 173.582 404.831 173.582 328.498 183.195C314.642 184.957 300.79 187.021 286.942 189.387C284.204 189.833 281.581 190.817 279.225 192.283C276.869 193.749 274.828 195.668 273.218 197.928C271.889 199.806 270.95 201.932 270.456 204.18C269.963 206.428 269.925 208.751 270.346 211.014L284.389 284.282C285.369 289.032 288.157 293.215 292.164 295.947C296.171 298.679 301.083 299.747 305.863 298.925C314.706 297.402 323.566 296.027 332.443 294.802C408.739 284.231 486.153 284.601 562.345 295.899C568.669 296.827 574.975 297.836 581.265 298.925C582.311 299.103 583.37 299.192 584.431 299.193C588.736 299.198 592.91 297.715 596.246 294.995C599.582 292.276 601.876 288.486 602.739 284.269L616.718 211.027C617.131 208.758 617.083 206.43 616.579 204.18C616.074 201.929 615.123 199.804 613.782 197.928Z" fill="#505050"/>
<path d="M598.819 196.587C496.035 178.867 390.977 178.867 288.193 196.587C286.414 196.869 284.709 197.501 283.175 198.445C281.641 199.39 280.309 200.628 279.257 202.09C278.48 203.169 277.928 204.392 277.632 205.688C277.336 206.984 277.302 208.326 277.533 209.635L291.576 282.865C292.178 285.742 293.877 288.273 296.313 289.919C298.748 291.566 301.729 292.2 304.624 291.686C396.571 275.824 490.556 275.824 582.503 291.686C585.389 292.175 588.352 291.531 590.774 289.887C593.196 288.243 594.889 285.727 595.5 282.865L609.466 209.648C609.705 208.338 609.677 206.995 609.386 205.696C609.094 204.398 608.544 203.171 607.768 202.09C606.714 200.627 605.381 199.387 603.844 198.443C602.308 197.499 600.6 196.868 598.819 196.587Z" fill="white"/>
<path d="M320.251 232.245L312.208 233.394L312.999 238.998L320.404 237.939L320.991 242.113L313.586 243.16L314.863 252.033L309.756 252.761L306.514 229.934L319.663 228.057L320.251 232.245Z" fill="#282828"/>
<path d="M344.763 238.488C345.477 245.365 342.626 249.139 336.209 249.812C329.979 250.459 326.515 247.42 325.817 240.696L324.438 227.457L329.621 226.921L331.013 240.224C331.396 243.926 333.03 245.637 335.941 245.331C338.852 245.024 340.013 243.096 339.643 239.522L338.239 226.027L343.345 225.491L344.763 238.488Z" fill="#282828"/>
<path d="M372.006 246.454L366.785 246.837L356.227 233.074C355.614 232.27 355.193 231.657 354.95 231.249C355.149 232.479 355.281 233.719 355.346 234.964L356.252 247.603L351.363 247.947L349.716 224.967L355.295 224.572L365.419 237.913C365.878 238.513 366.312 239.113 366.695 239.713C366.514 238.674 366.394 237.625 366.338 236.572L365.432 223.806L370.321 223.448L372.006 246.454Z" fill="#282828"/>
<path d="M377.739 246.148L376.679 223.168L384.837 222.797C393.016 222.414 397.272 225.968 397.604 233.458C397.751 235.041 397.565 236.637 397.057 238.143C396.549 239.65 395.731 241.033 394.655 242.203C393.503 243.353 392.135 244.264 390.63 244.884C389.125 245.504 387.512 245.821 385.884 245.816L377.739 246.148ZM382.054 227.1L382.731 241.692L385.284 241.577C386.26 241.587 387.228 241.391 388.123 241.001C389.018 240.612 389.821 240.038 390.48 239.318C391.757 237.744 392.358 235.729 392.152 233.713C392.163 232.76 391.978 231.816 391.609 230.937C391.24 230.059 390.695 229.266 390.008 228.606C389.26 227.982 388.394 227.515 387.462 227.232C386.53 226.949 385.55 226.856 384.582 226.959L382.054 227.1Z" fill="#282828"/>
<path d="M422.282 244.565L416.626 244.705L414.852 239.598L406.655 239.803L405.162 244.909L399.544 245.05L407.345 221.802L413.498 221.636L422.282 244.565ZM413.562 235.628L410.894 227.968C410.672 227.301 410.523 226.612 410.447 225.913H410.307C410.268 226.596 410.152 227.272 409.962 227.93L407.651 235.807L413.562 235.628Z" fill="#282828"/>
<path d="M451.964 244.411H446.857V230.61C446.857 229.13 446.857 227.483 447.036 225.683H446.908C446.738 226.714 446.499 227.734 446.194 228.734L440.844 244.437H436.606L431.052 228.938C430.749 227.884 430.501 226.814 430.312 225.734H430.171C430.325 228.006 430.401 229.998 430.401 231.708V244.475H425.716L425.626 221.457H433.223L437.985 235.104C438.366 236.173 438.644 237.276 438.814 238.398H438.917C439.158 237.272 439.461 236.16 439.823 235.066L444.483 221.418H451.887L451.964 244.411Z" fill="#282828"/>
<path d="M471.587 244.73L457.76 244.564L458.118 221.521L471.408 221.725L471.344 225.963L463.25 225.836L463.161 230.942L470.706 231.057L470.642 235.27L463.097 235.155L463.02 240.428L471.65 240.568L471.587 244.73Z" fill="#282828"/>
<path d="M496.584 245.522L491.337 245.343L482.336 230.521C481.939 229.891 481.577 229.239 481.251 228.568V232.296L480.817 244.96L475.915 244.794L476.706 221.814L482.285 222.006L490.954 236.343C491.349 236.994 491.72 237.62 492.052 238.258H492.013C491.941 237.204 491.941 236.146 492.013 235.092L492.447 222.325L497.35 222.491L496.584 245.522Z" fill="#282828"/>
<path d="M519.564 227.891L512.989 227.534L511.968 246.326L506.759 246.045L507.793 227.253L501.256 226.895L501.486 222.669L519.794 223.678L519.564 227.891Z" fill="#282828"/>
<path d="M540.105 248.305L534.463 247.871L533.186 242.636L525.015 242.024L523.011 247.015L517.406 246.594L527.505 224.24L533.633 224.699L540.105 248.305ZM532.33 238.577L530.441 230.661C530.289 229.974 530.212 229.272 530.211 228.568H530.084C529.976 229.246 529.791 229.91 529.535 230.546L526.483 238.181L532.33 238.577Z" fill="#282828"/>
<path d="M557.123 250.054L543.463 248.663L545.799 225.683L550.97 226.206L549.055 244.948L557.545 245.816L557.123 250.054Z" fill="#282828"/>
<path d="M559.753 249.467L560.43 244.36C561.993 246.084 564.112 247.205 566.418 247.526C566.99 247.595 567.569 247.595 568.141 247.526C568.582 247.494 569.014 247.386 569.418 247.207C569.743 247.066 570.028 246.847 570.248 246.569C570.441 246.311 570.565 246.008 570.605 245.688C570.676 245.25 570.6 244.801 570.388 244.411C570.143 243.994 569.833 243.619 569.469 243.3C569.016 242.901 568.529 242.542 568.013 242.228C567.452 241.871 566.826 241.5 566.162 241.13C564.709 240.353 563.465 239.236 562.537 237.875C561.802 236.652 561.522 235.21 561.745 233.802C561.838 232.775 562.196 231.791 562.785 230.944C563.373 230.098 564.172 229.42 565.103 228.976C566.054 228.523 567.079 228.242 568.128 228.146C569.288 228.028 570.459 228.05 571.614 228.21C572.675 228.346 573.724 228.559 574.754 228.849C575.602 229.098 576.424 229.432 577.205 229.844L576.567 234.619C576.214 234.292 575.829 234.001 575.418 233.751C575.011 233.489 574.584 233.258 574.141 233.062C573.69 232.866 573.225 232.704 572.75 232.576C572.33 232.458 571.904 232.364 571.473 232.296C570.935 232.233 570.39 232.233 569.852 232.296C569.412 232.326 568.981 232.43 568.575 232.602C568.245 232.741 567.952 232.955 567.72 233.228C567.5 233.483 567.362 233.799 567.324 234.134C567.269 234.5 567.326 234.874 567.49 235.206C567.675 235.573 567.926 235.902 568.23 236.177C568.626 236.541 569.053 236.87 569.507 237.16C570.005 237.492 570.567 237.836 571.205 238.194C572.004 238.662 572.772 239.182 573.503 239.751C574.132 240.242 574.695 240.813 575.176 241.449C575.619 242.053 575.94 242.739 576.12 243.466C576.322 244.303 576.352 245.171 576.21 246.02C576.102 247.14 575.706 248.213 575.061 249.135C574.476 249.925 573.704 250.557 572.814 250.973C571.853 251.416 570.818 251.676 569.762 251.739C568.588 251.825 567.407 251.791 566.239 251.637C565.038 251.476 563.855 251.207 562.703 250.833C561.655 250.531 560.661 250.071 559.753 249.467Z" fill="#282828"/>
</g>
<defs>
<linearGradient id="paint0_linear_934_2" x1="576.914" y1="82.0902" x2="751" y2="82.0902" gradientUnits="userSpaceOnUse">
<stop stop-color="#FDD88E"/>
<stop offset="0.181" stop-color="#FDD380"/>
<stop offset="0.5264" stop-color="#FCC659"/>
<stop offset="0.9968" stop-color="#FAB01C"/>
<stop offset="1" stop-color="#FAB01C"/>
</linearGradient>
<linearGradient id="paint1_linear_934_2" x1="568.052" y1="293.732" x2="754.989" y2="406.585" gradientUnits="userSpaceOnUse">
<stop stop-color="#F3F3F3"/>
<stop offset="0.3621" stop-color="#EFEFEF"/>
<stop offset="0.7556" stop-color="#E2E2E2"/>
<stop offset="0.9154" stop-color="#DADADA"/>
</linearGradient>
<linearGradient id="paint2_linear_934_2" x1="713.572" y1="408.014" x2="742.539" y2="379.503" gradientUnits="userSpaceOnUse">
<stop offset="0.091965" stop-color="#FBC455"/>
<stop offset="0.365" stop-color="#FCCF6C"/>
<stop offset="0.7667" stop-color="#FEDC88"/>
<stop offset="1" stop-color="#FFE192"/>
</linearGradient>
<clipPath id="clip0_934_2">
<rect width="1031" height="474" fill="white"/>
</clipPath>
<clipPath id="clip1_934_2">
<rect width="231" height="202.863" fill="white" transform="translate(548 271.55)"/>
</clipPath>
</defs>
</svg>
