<?xml version="1.0" standalone="no"?>
<!DOCTYPE svg PUBLIC "-//W3C//DTD SVG 20010904//EN"
 "http://www.w3.org/TR/2001/REC-SVG-20010904/DTD/svg10.dtd">
<svg version="1.0" xmlns="http://www.w3.org/2000/svg"
 width="512.000000pt" height="512.000000pt" viewBox="0 0 512.000000 512.000000"
 preserveAspectRatio="xMidYMid meet">
<metadata>
Created by potrace 1.14, written by Peter Selinger 2001-2017
</metadata>
<g transform="translate(0.000000,512.000000) scale(0.100000,-0.100000)"
fill="#000000" stroke="none">
<path d="M0 3841 l0 -1278 35 32 c27 26 48 35 100 44 119 21 205 -5 250 -77
15 -24 25 -31 42 -27 12 3 40 -1 61 -8 l40 -14 5 38 c6 44 45 102 94 140 l34
27 -63 35 c-61 34 -115 53 -168 60 l-25 3 29 13 c26 10 99 14 186 10 44 -2 78
-20 104 -54 25 -32 26 -32 73 -22 26 6 49 12 51 13 2 1 -5 17 -15 35 -59 108
-114 170 -168 190 -16 6 -44 17 -62 26 -22 11 -49 14 -85 11 l-53 -5 35 15
c22 10 66 16 120 16 76 1 90 -2 130 -27 72 -44 72 -44 125 -56 83 -20 145 -98
145 -184 0 -40 3 -44 33 -55 52 -19 120 -68 139 -100 14 -24 27 -31 63 -36 28
-5 62 -20 88 -40 58 -44 108 -39 156 17 21 23 42 37 56 37 13 0 26 4 29 8 7
12 -56 90 -78 96 -11 3 -16 11 -13 19 9 24 -40 67 -76 67 -18 1 -52 12 -77 25
-47 25 -42 33 7 14 15 -6 47 -11 71 -10 24 1 53 -6 67 -15 23 -15 25 -15 25 0
0 29 -33 136 -42 136 -5 0 -7 4 -4 8 3 5 -1 20 -9 35 -8 15 -12 36 -10 46 2
13 -1 18 -9 15 -8 -3 -12 3 -12 18 1 21 -3 22 -64 23 -60 0 -71 4 -129 43 -35
23 -81 45 -102 48 -22 4 -42 11 -45 15 -3 5 -10 7 -15 4 -5 -3 -6 2 -2 11 6
16 0 17 -60 11 -37 -3 -67 -4 -67 -1 0 12 54 119 62 122 4 2 6 8 2 13 -3 5 -1
9 4 9 6 0 12 10 16 23 3 13 18 37 33 53 15 16 28 34 29 41 2 14 86 137 96 141
5 2 8 10 8 18 0 8 5 14 12 14 6 0 8 3 5 6 -4 4 -14 1 -22 -6 -14 -11 -14 -10
-5 14 8 21 7 28 -5 33 -13 5 -13 7 2 19 16 12 16 13 1 14 -29 0 -31 60 -1 60
8 0 11 5 8 11 -4 6 1 17 11 25 17 13 14 14 -36 8 -30 -3 -60 -11 -67 -16 -7
-5 -22 -8 -35 -6 -17 2 -9 8 35 26 72 27 126 28 158 4 24 -19 59 -25 59 -11 0
4 24 24 53 45 28 22 61 47 72 57 28 26 186 117 275 159 144 68 336 128 455
144 28 3 59 8 70 10 60 13 212 20 295 13 104 -8 226 -26 250 -36 19 -8 22 -9
99 -23 119 -22 264 -80 444 -178 62 -34 129 -80 221 -151 57 -44 58 -44 86
-28 35 21 83 22 143 1 58 -20 71 -35 19 -23 -53 12 -59 11 -35 -6 13 -9 20
-22 16 -31 -3 -8 -2 -14 3 -13 9 2 16 0 74 -21 19 -7 53 -18 75 -24 22 -6 49
-16 60 -23 12 -6 28 -7 40 -2 11 4 41 8 67 8 35 1 54 -5 74 -22 24 -21 31 -22
59 -13 18 7 45 26 59 43 35 41 99 65 162 61 37 -3 44 -6 29 -12 -80 -32 -105
-45 -146 -78 -26 -20 -49 -34 -52 -31 -3 3 -28 -1 -56 -8 -46 -12 -52 -11 -72
7 -16 15 -37 19 -93 20 -49 1 -94 9 -146 28 -45 16 -82 23 -95 19 -11 -4 -23
-7 -27 -8 -16 -1 -17 -13 -3 -25 21 -18 19 -33 -5 -25 -14 4 -20 2 -20 -8 0
-8 -7 -21 -17 -28 -15 -13 -15 -12 -2 8 14 23 8 40 -10 28 -20 -12 -4 -51 53
-133 31 -45 63 -99 70 -119 8 -21 35 -74 60 -118 25 -44 46 -85 46 -91 0 -9
-13 -9 -52 2 -68 18 -95 18 -105 -1 -5 -8 -32 -21 -60 -28 -28 -8 -83 -33
-122 -56 -60 -37 -76 -42 -105 -37 -25 5 -37 3 -43 -8 -4 -7 -17 -16 -28 -19
-11 -4 14 -4 55 -1 60 4 73 3 63 -7 -7 -7 -50 -15 -97 -18 -46 -3 -86 -8 -89
-11 -30 -33 -105 -215 -94 -227 3 -2 20 3 37 12 20 10 47 15 69 12 23 -3 49 3
73 14 41 21 48 23 48 11 0 -13 -88 -52 -118 -52 -34 0 -57 -14 -48 -29 4 -6 2
-11 -3 -11 -6 0 -11 -6 -12 -12 0 -7 -22 -31 -47 -53 l-47 -40 30 -20 c16 -11
38 -37 48 -57 11 -23 37 -48 66 -67 l49 -29 10 23 c14 30 106 82 162 91 36 6
53 16 86 53 40 44 78 69 137 90 24 9 27 16 27 53 1 95 66 170 160 184 25 4 54
14 65 24 47 42 88 55 170 54 55 0 91 -5 115 -17 l35 -17 -55 5 c-76 6 -116 -7
-177 -60 -49 -43 -113 -134 -127 -181 -6 -19 -1 -23 41 -33 47 -12 47 -12 77
23 42 47 57 52 166 54 76 2 103 -2 135 -17 l40 -19 -55 -1 c-60 -2 -119 -24
-175 -67 l-35 -27 35 -34 c41 -40 75 -102 75 -138 0 -30 -2 -29 45 -9 21 8 48
13 60 10 17 -4 27 2 46 31 36 54 89 78 174 77 91 -2 146 -17 185 -54 l32 -30
41 22 c32 17 60 22 119 23 l78 0 0 1258 0 1257 -2560 0 -2560 0 0 -1279z
m1638 725 c-15 -6 -39 -23 -54 -36 l-27 -25 16 25 c19 27 54 50 77 49 8 0 3
-6 -12 -13z m1309 8 c-3 -3 -12 -4 -19 -1 -8 3 -5 6 6 6 11 1 17 -2 13 -5z
m93 -9 c0 -10 -40 -10 -43 0 -4 8 3 10 19 7 13 -2 24 -6 24 -7z m-50 -12 c3
-2 -20 -3 -50 -2 -30 1 -64 -1 -75 -5 -14 -5 -12 -3 4 7 22 13 106 13 121 0z
m-1990 -723 c42 -40 32 -49 -17 -16 -40 28 -107 35 -144 16 -10 -6 -19 -8 -19
-6 0 14 60 35 101 36 39 0 53 -5 79 -30z m3041 9 c23 -19 23 -20 2 -10 -39 19
-97 13 -138 -14 -40 -28 -50 -29 -32 -5 39 52 125 67 168 29z m-3519 -51 c22
-6 52 -27 70 -47 18 -20 47 -41 66 -48 31 -10 37 -9 52 9 20 25 115 37 148 19
15 -8 27 -8 39 -2 32 17 164 53 171 46 10 -10 -19 -24 -68 -31 -25 -4 -55 -13
-67 -21 -13 -9 -52 -16 -95 -17 -46 -2 -85 -9 -106 -20 -27 -14 -40 -15 -64
-7 -17 6 -42 11 -55 11 -14 0 -43 16 -66 35 -23 20 -67 45 -99 57 -32 11 -58
22 -58 24 0 9 96 3 132 -8z m643 -106 c-3 -3 -11 0 -18 7 -9 10 -8 11 6 5 10
-3 15 -9 12 -12z m-291 -528 c30 -12 16 -19 -30 -15 -32 2 -42 6 -33 12 16 10
41 11 63 3z m3141 -4 c-3 -5 -23 -10 -43 -10 -28 0 -33 3 -22 10 20 13 73 13
65 0z m-2942 -107 c22 -20 13 -31 -9 -12 -9 8 -29 20 -43 27 l-26 12 30 -6
c17 -3 38 -13 48 -21z m2694 3 c-21 -8 -46 -20 -56 -28 -9 -7 -4 -1 11 15 17
16 39 27 56 27 24 -1 23 -2 -11 -14z m-2564 -84 c26 -24 55 -98 43 -109 -3 -3
-13 13 -22 36 -15 37 -39 64 -90 99 -17 11 -16 12 11 7 17 -4 42 -18 58 -33z
m2470 32 c3 -4 -17 -18 -46 -33 -44 -22 -55 -33 -69 -71 l-17 -45 0 38 c-1 53
14 75 62 98 45 20 60 23 70 13z m-3412 -244 c5 0 9 -4 9 -8 0 -4 -25 -8 -55
-8 -30 0 -55 1 -55 3 0 6 66 21 78 17 8 -2 18 -4 23 -4z m4446 -9 c6 -3 -17
-6 -53 -7 -35 0 -64 1 -64 3 0 2 10 8 23 12 21 9 70 4 94 -8z"/>
<path d="M1228 3843 c7 -3 16 -2 19 1 4 3 -2 6 -13 5 -11 0 -14 -3 -6 -6z"/>
<path d="M3773 3764 c-18 -19 -16 -29 2 -14 12 10 15 10 15 0 0 -8 3 -11 6 -7
3 3 2 12 -3 20 -7 13 -10 13 -20 1z"/>
<path d="M2428 3479 c-3 -130 -8 -184 -16 -187 -8 -2 -12 -29 -12 -77 0 -53
-4 -76 -14 -82 -11 -6 -15 -46 -18 -182 -2 -128 -6 -175 -15 -179 -10 -3 -13
-69 -15 -280 -1 -152 -4 -238 -5 -189 -4 84 -17 116 -26 60 -2 -16 -5 56 -6
160 l-1 187 -85 0 -85 0 -1 -162 c-1 -90 -5 -226 -8 -303 -7 -120 -8 -96 -9
161 -1 165 -5 304 -9 308 -11 10 -10 -2 -13 264 -3 273 -17 223 -19 -69 -1
-161 -3 -178 -21 -199 -16 -19 -20 -37 -20 -97 0 -42 -4 -73 -10 -73 -6 0 -11
-66 -12 -172 -2 -152 -3 -158 -5 -50 -3 111 -5 122 -22 122 -24 0 -31 19 -31
85 0 30 -5 57 -11 61 -8 4 -9 -1 -4 -17 3 -14 3 -19 -2 -12 -4 6 -21 15 -36
18 l-27 7 -2 162 -1 161 -10 -167 c-9 -155 -11 -168 -28 -168 -32 0 -39 42
-41 258 l-2 207 -7 -265 c-3 -146 -8 -364 -10 -485 -3 -199 -4 -208 -9 -95
l-5 125 -25 0 c-20 0 -26 -6 -28 -27 -3 -22 -9 -28 -28 -28 -22 0 -24 -4 -25
-47 -1 -83 -17 -97 -20 -18 l-2 70 -8 -75 c-13 -112 -17 -115 -18 -14 -1 88
-2 91 -34 122 -18 18 -40 32 -50 32 -9 0 -37 -14 -62 -32 l-45 -32 -1 -100
c-1 -56 -4 -91 -6 -78 -7 35 -21 26 -26 -15 -3 -35 -4 -34 -5 10 l-2 47 -55 0
c-32 0 -55 -4 -55 -11 0 -5 -5 -7 -10 -4 -6 3 -10 52 -10 110 0 94 -2 104 -19
110 -16 5 -21 19 -26 73 -10 109 -12 112 -14 20 -1 -87 -1 -88 -26 -88 l-25 0
0 -105 c0 -102 -1 -105 -22 -102 -15 1 -24 -5 -29 -23 -6 -21 -7 -22 -9 -5 -2
15 -4 12 -10 -10 -6 -23 -8 -13 -9 41 -1 50 -5 75 -16 84 -21 17 -43 6 -61
-32 -10 -22 -13 -25 -10 -10 3 17 1 22 -9 18 -7 -2 -19 2 -25 10 -7 8 -19 14
-26 14 -8 0 -14 4 -14 9 0 6 -15 5 -37 -1 -27 -7 -38 -7 -41 1 -2 7 -9 8 -22
1 -13 -7 -20 -6 -22 1 -2 6 -15 12 -30 12 -14 1 -24 5 -21 10 2 4 -3 10 -11
13 -9 3 -14 10 -11 14 3 4 -2 10 -10 14 -8 3 -15 12 -15 21 0 8 -4 15 -9 15
-5 0 -11 10 -13 23 -3 14 -7 6 -12 -25 -5 -27 -12 -48 -17 -48 -4 0 -6 9 -4
20 4 23 -5 26 -24 8 -10 -11 -11 -10 -6 3 4 10 1 20 -6 25 -8 4 -10 3 -5 -4
10 -17 -4 -15 -23 2 -23 20 -108 56 -116 48 -3 -3 -3 1 0 10 5 11 -1 19 -17
24 -13 4 -27 7 -31 6 -14 -4 -48 19 -42 28 3 6 0 8 -7 5 -13 -5 -159 85 -192
118 -10 9 -20 17 -22 17 -16 0 -82 -34 -101 -52 -23 -21 -23 -22 -23 -345 0
-356 -5 -332 60 -314 20 5 26 15 30 46 l5 40 53 3 52 3 0 -45 0 -45 123 -4
122 -3 -127 -2 c-71 -1 -128 1 -129 6 -1 4 -2 23 -3 42 -2 34 -3 35 -41 35
-39 0 -40 -1 -45 -40 -5 -37 -7 -40 -50 -50 l-45 -11 -3 -927 -2 -927 2560 0
2560 0 0 1286 0 1287 -58 -6 c-32 -4 -84 -18 -116 -32 -57 -25 -59 -25 -83 -8
-59 42 -79 53 -96 53 -10 0 -57 -26 -105 -58 -57 -38 -95 -56 -109 -54 -13 2
-23 -2 -23 -8 0 -6 5 -8 10 -5 6 3 10 1 10 -4 0 -6 -4 -12 -10 -12 -5 -1 -16
-2 -22 -3 -7 -1 -18 2 -25 6 -6 5 -14 5 -17 -1 -3 -5 -16 -7 -28 -3 -12 3 -19
1 -15 -5 3 -5 -7 -17 -24 -27 -26 -15 -29 -15 -29 -1 0 9 13 24 30 33 16 9 30
20 30 25 0 4 5 7 11 7 5 0 8 -4 4 -9 -3 -5 0 -13 6 -17 7 -4 9 -3 5 4 -3 6 0
17 9 25 12 13 12 15 -8 19 -16 3 -30 -4 -47 -24 -13 -15 -30 -28 -38 -28 -7 0
-11 -4 -8 -8 10 -17 -26 -54 -46 -49 -14 4 -18 2 -14 -9 4 -10 0 -15 -12 -13
-31 3 -43 -1 -37 -11 4 -6 -1 -7 -11 -3 -13 5 -15 2 -10 -18 6 -21 6 -22 -4
-6 -11 17 -13 17 -29 3 -9 -9 -27 -14 -39 -11 -15 2 -22 -1 -22 -11 0 -8 -4
-12 -10 -9 -5 3 -10 1 -10 -5 0 -6 -4 -9 -8 -6 -5 3 -23 -4 -40 -15 -18 -10
-35 -19 -37 -19 -3 0 -6 53 -6 118 -1 89 -3 108 -10 77 -4 -22 -8 -88 -8 -147
-1 -101 -2 -106 -21 -101 -11 3 -20 0 -20 -6 0 -8 -6 -9 -18 -2 -11 6 -24 6
-33 0 -10 -6 -10 -9 -1 -9 8 0 6 -6 -5 -18 -17 -17 -18 -17 -29 18 -6 19 -17
36 -25 36 -8 1 -40 2 -71 3 -45 1 -58 5 -61 19 -4 14 -6 14 -12 -5 -4 -13 -11
-23 -15 -23 -4 0 -11 -33 -16 -72 l-9 -73 -3 103 c-2 94 -4 102 -22 102 -19 0
-20 -8 -20 -137 0 -129 -1 -136 -15 -109 -8 15 -15 35 -15 42 0 8 -7 14 -15
14 -10 0 -15 10 -15 31 0 40 -19 28 -22 -14 -1 -18 -4 6 -7 53 -5 76 -8 85
-27 88 -16 2 -20 9 -17 30 2 15 -1 72 -5 127 l-9 100 -4 -90 c-2 -49 -3 -115
-2 -145 1 -43 -1 -50 -8 -32 -19 49 -34 18 -37 -76 -2 -75 -5 -90 -17 -85 -11
4 -15 22 -15 65 l0 59 -57 -3 c-55 -3 -58 -4 -64 -33 -5 -22 -7 -15 -8 29 -1
82 -12 63 -21 -36 -6 -72 -8 -59 -10 97 -2 99 -3 189 -4 199 -1 17 -8 19 -71
17 l-70 -2 -3 238 c-2 130 -5 239 -8 242 -2 2 -4 -91 -4 -207 0 -190 -2 -212
-17 -222 -17 -11 -17 -11 0 -6 13 4 17 0 17 -18 0 -15 -7 -26 -20 -29 -19 -5
-20 -14 -22 -184 -2 -174 -2 -175 -5 -38 -3 122 -5 142 -22 156 -10 8 -22 30
-26 48 -5 23 -11 31 -22 27 -8 -3 -17 -6 -19 -6 -2 0 -4 -13 -4 -29 0 -16 -6
-31 -15 -35 -11 -4 -15 -22 -15 -73 0 -37 -3 -99 -8 -138 l-7 -70 -5 58 c-6
74 -23 78 -31 7 l-6 -55 -3 50 -3 50 -7 -55 c-4 -33 -7 35 -8 168 l-2 222 -40
0 -40 0 0 -241 c0 -157 -3 -238 -10 -234 -6 4 -10 157 -10 425 0 382 -1 419
-17 422 -12 2 -16 15 -17 48 -1 41 -3 45 -29 48 l-27 3 -1 152 c0 84 -4 170
-8 192 -6 27 -9 -23 -10 -152 -1 -121 -5 -193 -11 -193 -5 0 -10 -20 -10 -44
0 -30 -5 -46 -15 -50 -13 -5 -15 -62 -17 -418 -2 -227 -4 -323 -5 -213 -3 215
-14 282 -23 145 -5 -61 -7 -27 -8 116 -2 192 -3 202 -22 207 -19 5 -20 14 -20
180 0 146 -2 176 -15 181 -11 4 -15 23 -15 80 0 41 -4 76 -10 78 -5 2 -12 82
-16 183 -4 99 -8 181 -9 183 -1 2 -4 -79 -7 -179z m-491 -1041 c-3 -7 -5 -2
-5 12 0 14 2 19 5 13 2 -7 2 -19 0 -25z m2791 -475 c-38 -4 -38 -5 -38 -49 l0
-44 -137 2 -138 2 133 3 132 4 0 44 0 45 43 -2 42 -1 -37 -4z m62 -47 c0 -32
2 -34 45 -40 25 -4 58 -18 74 -32 26 -22 30 -32 33 -89 2 -47 0 -65 -9 -65 -9
0 -13 19 -13 63 0 34 -4 67 -8 73 -11 17 -43 31 -89 39 -35 5 -43 11 -43 28 0
12 -3 33 -7 46 -4 17 -3 22 5 17 7 -4 12 -22 12 -40z m-2892 -26 c20 0 22 -5
22 -55 l0 -55 -32 0 -33 0 43 -41 c60 -58 71 -50 74 58 l3 88 60 0 60 0 5 -35
5 -35 29 38 29 38 131 -3 130 -3 22 -33 22 -32 21 35 c20 34 22 35 80 35 33 0
62 -3 64 -8 3 -4 -19 -51 -49 -105 -52 -93 -54 -100 -54 -172 l0 -74 155 -3
c85 -2 155 -2 155 0 0 2 -14 15 -31 30 -41 34 -59 79 -59 147 0 62 15 97 57
136 56 53 113 66 193 45 32 -8 56 -11 58 -5 2 5 32 9 67 9 62 0 64 -1 86 -36
l22 -37 19 37 19 36 169 -2 c152 -3 171 -5 196 -24 37 -27 50 -68 35 -111 -10
-27 -10 -37 3 -55 27 -38 21 -102 -14 -141 l-29 -34 37 2 37 3 3 181 2 182
108 -3 107 -3 0 -50 0 -50 -47 -3 c-34 -2 -48 -7 -48 -18 0 -10 13 -14 51 -14
l50 0 -3 -47 -3 -48 -47 -3 c-34 -2 -48 -7 -48 -18 0 -10 13 -14 49 -14 l50 0
3 -47 c2 -25 9 -48 15 -50 10 -4 13 39 15 179 l3 183 101 0 c88 -1 104 -4 132
-24 64 -45 81 -130 39 -192 l-23 -34 34 -57 34 -58 127 -2 c110 -1 118 -2 61
-8 -36 -4 -126 -8 -200 -9 l-135 -2 38 -20 c55 -29 79 -73 74 -132 -3 -30 -12
-56 -25 -70 l-21 -22 29 -50 c42 -71 41 -75 -34 -75 l-65 0 -23 41 -23 42 -5
-39 -5 -39 -55 0 -55 0 -3 183 c-2 174 -3 182 -22 182 -17 0 -20 -7 -20 -50
l0 -50 -50 0 c-43 0 -50 -3 -50 -20 0 -17 7 -20 51 -20 l50 0 -3 -42 -3 -43
-47 -3 c-40 -3 -48 -6 -48 -23 0 -16 7 -19 50 -19 l50 0 0 -50 0 -51 -107 3
-108 3 -3 183 -2 182 -57 0 -56 0 34 -23 c42 -28 57 -74 37 -114 -13 -27 -13
-32 4 -52 11 -15 18 -39 18 -68 0 -37 -5 -50 -30 -73 -35 -33 -82 -43 -180
-38 l-65 3 -5 180 -5 180 -57 -106 c-56 -103 -58 -108 -58 -183 l0 -76 -55 0
-55 0 0 76 c0 72 -2 80 -51 170 l-51 95 -30 -51 c-23 -40 -33 -50 -46 -44 -64
27 -115 6 -127 -53 -5 -27 -2 -37 20 -59 22 -22 33 -26 63 -21 20 3 44 8 53
12 12 4 23 -6 43 -39 14 -24 26 -47 26 -51 0 -3 -17 -13 -37 -22 l-38 -15 32
-17 32 -16 -25 -43 c-21 -35 -30 -42 -47 -37 -12 4 -30 9 -39 11 -22 6 -74
-20 -82 -41 -28 -75 41 -148 110 -116 37 17 42 15 64 -30 21 -39 21 -41 3 -55
-25 -19 -76 -27 -134 -22 -91 9 -159 87 -159 181 0 80 33 133 104 169 l30 15
-37 18 c-135 64 -142 256 -12 336 l30 19 -117 0 -116 0 -54 -97 c-50 -92 -53
-103 -58 -183 l-5 -85 -55 0 -55 0 -5 85 c-5 78 -9 92 -54 173 -26 48 -51 87
-55 87 -9 0 -111 -137 -111 -151 0 -6 27 -50 60 -98 33 -48 60 -91 60 -95 0
-4 -30 -6 -67 -4 l-67 3 -38 53 -37 54 -3 -54 -3 -53 -57 -3 -58 -3 -1 103 c0
57 0 140 1 186 l1 82 -30 0 c-30 0 -31 -1 -31 -50 0 -46 -2 -50 -24 -50 -39 0
-39 -16 -2 -45 74 -56 84 -140 24 -202 -24 -25 -28 -33 -15 -33 13 0 17 -9 17
-45 0 -43 -1 -45 -30 -45 -39 0 -39 -22 0 -50 38 -27 60 -69 60 -115 0 -72
-42 -105 -134 -105 -80 0 -86 4 -86 60 l0 47 49 -5 c70 -6 76 12 18 62 -56 49
-74 91 -58 139 7 19 22 39 34 45 23 10 23 11 -28 27 -11 3 -15 19 -15 57 l0
53 50 -3 c27 -2 50 -1 50 4 0 4 -22 31 -50 60 -44 46 -50 58 -50 95 0 33 6 49
27 71 l27 28 -170 -1 c-159 0 -167 -1 -129 -15 76 -28 115 -86 115 -171 0 -65
-33 -121 -89 -152 -35 -19 -58 -24 -134 -25 l-92 -1 -3 183 c-2 153 -5 182
-17 182 -11 0 -15 -13 -15 -50 l0 -50 -50 0 c-43 0 -50 -3 -50 -20 0 -17 7
-20 51 -20 l50 0 -3 -42 -3 -43 -47 -3 c-40 -3 -48 -6 -48 -23 0 -16 7 -19 50
-19 l50 0 0 -50 0 -51 -107 3 -108 3 -3 183 -2 182 -73 -1 c-70 -1 -71 -1 -41
-14 17 -8 43 -28 58 -45 33 -40 36 -109 6 -158 l-21 -34 31 -54 c16 -29 30
-56 30 -59 0 -3 -29 -5 -65 -5 l-65 0 -27 43 -28 42 -3 -43 -3 -43 -57 3 -57
3 0 183 0 182 -161 0 c-242 0 -265 14 -34 20 l195 5 0 178 0 178 24 6 c46 11
183 -4 209 -24 69 -52 87 -134 42 -194 l-22 -31 22 -42 c49 -89 50 -86 50 112
l0 183 108 -3 107 -3 0 -50 0 -50 -48 -3 c-33 -2 -47 -7 -47 -18 0 -10 13 -14
51 -14 l50 0 -3 -47 -3 -48 -47 -3 c-34 -2 -48 -7 -48 -18 0 -10 13 -14 49
-14 l50 0 3 -47 c2 -27 8 -47 13 -46 6 2 11 74 13 184 l2 182 93 -5 c153 -8
217 -56 225 -168 6 -78 -22 -138 -81 -175 -23 -14 -34 -24 -24 -21 10 3 66 6
123 6 l104 0 0 50 0 50 50 0 c28 0 50 4 50 9 0 5 -12 20 -28 33 -70 59 -87
109 -58 166 20 39 77 65 121 56 11 -2 30 -4 43 -4z m-982 -789 c73 -33 94
-125 44 -193 l-20 -28 31 -55 31 -55 -64 0 c-62 0 -63 0 -83 37 -29 54 -48 56
-43 4 l4 -41 -53 0 -53 0 0 175 0 175 83 0 c58 0 94 -6 123 -19z m316 2 c10
-47 -2 -62 -51 -65 -39 -3 -46 -6 -49 -25 -3 -20 1 -23 30 -25 18 0 41 -1 51
0 13 1 17 -6 17 -38 l0 -39 -47 -3 c-44 -3 -48 -5 -48 -28 0 -23 4 -25 53 -28
l52 -3 0 -40 0 -39 -105 0 -104 0 -3 159 c-2 87 -2 166 0 175 3 13 19 16 102
16 86 0 99 -2 102 -17z m268 -9 c56 -33 80 -77 80 -149 0 -118 -70 -175 -217
-175 l-82 0 -3 159 c-2 87 -1 166 0 176 4 15 14 17 96 13 69 -3 101 -9 126
-24z m580 -14 c0 -22 3 -40 8 -40 4 1 21 19 37 40 29 38 32 39 93 40 34 0 62
-2 62 -5 0 -3 -25 -37 -55 -76 -30 -39 -55 -75 -55 -80 0 -4 20 -36 44 -71 24
-35 51 -75 61 -90 l17 -28 -63 0 -64 1 -34 49 c-18 28 -37 50 -42 50 -5 0 -9
-22 -9 -50 l0 -50 -50 0 -50 0 0 175 0 175 50 0 50 0 0 -40z m354 5 c11 -19
22 -35 25 -35 4 0 15 16 25 35 19 34 21 35 79 35 l59 0 -20 -33 c-12 -22 -17
-44 -14 -65 4 -27 1 -32 -16 -32 -36 0 -62 -61 -62 -146 l0 -74 -50 0 -50 0 0
70 c0 93 -26 150 -70 150 -16 0 -32 5 -36 11 -4 8 0 9 15 4 36 -11 42 4 18 43
-44 70 -43 72 21 72 55 0 58 -1 76 -35z m765 -2 c9 -18 19 -33 23 -33 3 0 15
16 27 35 19 33 23 35 76 35 30 0 55 -3 55 -7 0 -5 -23 -48 -50 -97 -48 -85
-50 -91 -50 -167 l0 -79 -55 0 -55 0 0 78 c0 75 -2 80 -54 175 l-55 98 61 -3
c58 -3 62 -5 77 -35z m416 21 c44 -20 60 -81 33 -124 -10 -15 -9 -22 4 -37 24
-28 30 -69 14 -107 -21 -51 -59 -66 -166 -66 l-90 0 0 175 0 175 86 0 c57 0
97 -5 119 -16z m297 -1 c10 -47 -2 -62 -51 -65 -39 -3 -46 -6 -49 -25 -4 -24
3 -27 66 -23 31 1 32 0 32 -39 l0 -40 -47 -3 c-44 -3 -48 -5 -48 -28 0 -23 4
-25 53 -28 l52 -3 0 -40 0 -39 -105 0 -104 0 -3 159 c-2 87 -2 166 0 175 3 13
19 16 102 16 86 0 99 -2 102 -17z m257 1 c68 -27 92 -119 50 -193 l-21 -37 31
-52 30 -52 -64 0 -65 0 -20 40 c-11 22 -25 40 -30 40 -6 0 -10 -18 -10 -40 l0
-40 -50 0 -50 0 0 155 c0 117 -3 155 -12 156 -10 0 -10 2 0 6 6 2 12 11 12 19
0 20 147 19 199 -2z"/>
<path d="M2241 1793 c-28 -37 -51 -72 -51 -77 0 -6 27 -49 59 -96 57 -83 59
-85 105 -90 l46 -6 0 79 c0 76 -2 84 -47 168 -26 49 -51 89 -54 89 -3 0 -29
-30 -58 -67z"/>
<path d="M3341 1763 c-49 -94 -51 -101 -49 -167 l3 -68 53 -2 52 -1 0 168 c0
92 -2 167 -4 167 -2 0 -26 -44 -55 -97z"/>
<path d="M2938 1833 c7 -3 16 -2 19 1 4 3 -2 6 -13 5 -11 0 -14 -3 -6 -6z"/>
<path d="M3045 1796 c-23 -39 -30 -44 -45 -36 -10 6 -32 10 -49 10 -26 0 -31
-4 -31 -24 0 -13 10 -30 23 -39 l22 -16 -27 0 c-25 -1 -28 2 -28 34 0 43 -13
45 -30 6 -15 -37 -6 -67 26 -87 23 -16 50 -15 100 1 18 6 26 -1 48 -41 20 -36
24 -50 15 -60 -9 -12 -2 -14 45 -14 l56 0 0 73 c0 65 -4 79 -41 147 -22 41
-44 79 -49 83 -4 5 -20 -12 -35 -37z m-48 -102 c-3 -3 -12 -4 -19 -1 -8 3 -5
6 6 6 11 1 17 -2 13 -5z"/>
<path d="M1441 1826 c2 -2 15 -9 29 -15 24 -11 24 -11 6 3 -16 13 -49 24 -35
12z"/>
<path d="M2405 1800 c9 -16 18 -30 21 -30 2 0 -2 14 -11 30 -9 17 -18 30 -21
30 -2 0 2 -13 11 -30z"/>
<path d="M2526 1813 c-6 -14 -5 -15 5 -6 7 7 10 15 7 18 -3 3 -9 -2 -12 -12z"/>
<path d="M2875 1820 c-3 -6 1 -7 9 -4 18 7 21 14 7 14 -6 0 -13 -4 -16 -10z"/>
<path d="M3160 1826 c0 -11 30 -66 36 -66 2 0 -3 15 -12 33 -19 36 -24 44 -24
33z"/>
<path d="M3580 1826 c0 -2 8 -10 18 -17 15 -13 16 -12 3 4 -13 16 -21 21 -21
13z"/>
<path d="M900 1816 c0 -2 8 -10 18 -17 15 -13 16 -12 3 4 -13 16 -21 21 -21
13z"/>
<path d="M2159 1793 l-24 -28 28 24 c25 23 32 31 24 31 -2 0 -14 -12 -28 -27z"/>
<path d="M2843 1798 c-15 -20 -25 -38 -20 -38 3 0 12 11 21 25 17 26 16 35 -1
13z"/>
<path d="M3520 1770 c0 -15 5 -20 18 -18 9 2 17 10 17 18 0 8 -8 16 -17 18
-13 2 -18 -3 -18 -18z"/>
<path d="M3612 1770 c0 -14 2 -19 5 -12 2 6 2 18 0 25 -3 6 -5 1 -5 -13z"/>
<path d="M830 1745 c0 -35 5 -40 34 -29 34 13 14 64 -25 64 -5 0 -9 -16 -9
-35z"/>
<path d="M1400 1706 c0 -69 2 -76 20 -76 11 0 29 9 40 20 38 38 17 109 -37
125 -22 6 -23 4 -23 -69z"/>
<path d="M1516 1767 c3 -10 9 -15 12 -12 3 3 0 11 -7 18 -10 9 -11 8 -5 -6z"/>
<path d="M4090 1746 c0 -39 18 -48 41 -20 15 18 2 47 -25 52 -12 3 -16 -4 -16
-32z"/>
<path d="M2485 1740 c-9 -17 -19 -29 -23 -26 -4 2 -5 -30 -2 -72 l4 -77 6 70
c3 39 13 85 23 103 10 17 15 32 13 32 -3 0 -13 -14 -21 -30z"/>
<path d="M1790 1757 c0 -2 15 -16 33 -33 l32 -29 -29 33 c-28 30 -36 37 -36
29z"/>
<path d="M2099 1718 c-18 -24 -24 -35 -12 -25 19 17 21 17 37 -5 17 -22 17
-22 1 5 -15 27 -15 30 1 48 9 10 15 19 11 19 -3 0 -20 -19 -38 -42z"/>
<path d="M3248 1735 c-9 -19 -14 -22 -25 -14 -11 9 -12 8 -7 -5 9 -24 22 -20
39 14 9 17 13 30 10 30 -3 0 -11 -11 -17 -25z"/>
<path d="M2811 1734 c0 -11 3 -14 6 -6 3 7 2 16 -1 19 -3 4 -6 -2 -5 -13z"/>
<path d="M1533 1705 c0 -22 2 -30 4 -17 2 12 2 30 0 40 -3 9 -5 -1 -4 -23z"/>
<path d="M4178 1702 l-17 -37 19 24 c11 13 20 29 20 37 0 21 -3 17 -22 -24z"/>
<path d="M931 1721 c-1 -8 -9 -24 -18 -35 -16 -20 -16 -20 6 0 13 12 21 28 18
35 -4 11 -6 11 -6 0z"/>
<path d="M3470 1708 c0 -5 25 -8 55 -8 30 0 55 3 55 8 0 4 -25 7 -55 7 -30 0
-55 -3 -55 -7z"/>
<path d="M1090 1702 c0 -4 19 -6 43 -4 70 5 76 10 15 11 -32 0 -58 -2 -58 -7z"/>
<path d="M3770 1702 c0 -4 19 -6 43 -4 70 5 76 10 15 11 -32 0 -58 -2 -58 -7z"/>
<path d="M1860 1686 c0 -2 8 -10 18 -17 15 -13 16 -12 3 4 -13 16 -21 21 -21
13z"/>
<path d="M1955 1631 c0 -44 -5 -64 -19 -80 -19 -21 -19 -21 7 -21 27 0 27 0
27 80 0 44 -4 80 -8 80 -4 0 -8 -27 -7 -59z"/>
<path d="M2810 1668 c0 -19 56 -88 72 -88 6 0 -2 10 -17 22 -15 12 -33 35 -41
52 -8 18 -13 24 -14 14z"/>
<path d="M3619 1642 c5 -34 6 -35 9 -8 2 16 0 32 -5 37 -5 5 -7 -7 -4 -29z"/>
<path d="M770 1654 c0 -8 5 -12 10 -9 6 4 8 11 5 16 -9 14 -15 11 -15 -7z"/>
<path d="M4120 1660 c-14 -5 -18 -8 -9 -9 9 -1 24 -11 33 -23 l17 -23 -11 23
c-6 12 -8 27 -5 32 3 6 5 10 3 9 -2 -1 -14 -5 -28 -9z"/>
<path d="M858 1653 c7 -3 16 -2 19 1 4 3 -2 6 -13 5 -11 0 -14 -3 -6 -6z"/>
<path d="M2040 1649 c0 -5 5 -7 10 -4 6 3 10 8 10 11 0 2 -4 4 -10 4 -5 0 -10
-5 -10 -11z"/>
<path d="M2170 1615 c17 -25 33 -45 36 -45 3 0 -9 20 -26 45 -17 25 -33 45
-36 45 -3 0 9 -20 26 -45z"/>
<path d="M3522 1638 c2 -15 10 -23 23 -23 13 0 21 8 23 23 3 18 -1 22 -23 22
-22 0 -26 -4 -23 -22z"/>
<path d="M890 1620 c6 -11 13 -20 16 -20 2 0 0 9 -6 20 -6 11 -13 20 -16 20
-2 0 0 -9 6 -20z"/>
<path d="M1891 1624 c0 -11 3 -14 6 -6 3 7 2 16 -1 19 -3 4 -6 -2 -5 -13z"/>
<path d="M1494 1608 l-19 -23 23 19 c21 18 27 26 19 26 -2 0 -12 -10 -23 -22z"/>
<path d="M2100 1568 c0 -41 1 -43 30 -43 17 0 30 1 30 3 0 5 -53 82 -56 82 -2
0 -4 -19 -4 -42z"/>
<path d="M771 1584 c0 -11 3 -14 6 -6 3 7 2 16 -1 19 -3 4 -6 -2 -5 -13z"/>
<path d="M4166 1587 c3 -10 9 -15 12 -12 3 3 0 11 -7 18 -10 9 -11 8 -5 -6z"/>
<path d="M832 1560 c2 -24 9 -36 21 -38 23 -5 21 17 -3 48 l-21 25 3 -35z"/>
<path d="M4090 1558 c0 -31 4 -38 20 -38 25 0 25 2 0 42 l-20 33 0 -37z"/>
<path d="M1418 1573 c7 -3 16 -2 19 1 4 3 -2 6 -13 5 -11 0 -14 -3 -6 -6z"/>
<path d="M2978 1573 c7 -3 16 -2 19 1 4 3 -2 6 -13 5 -11 0 -14 -3 -6 -6z"/>
<path d="M3568 1573 c7 -3 16 -2 19 1 4 3 -2 6 -13 5 -11 0 -14 -3 -6 -6z"/>
<path d="M2090 1460 l0 -41 30 34 c17 19 30 37 30 41 0 3 -13 6 -30 6 -28 0
-30 -2 -30 -40z"/>
<path d="M2422 1493 c37 -76 38 -76 61 -28 l17 35 -41 0 c-22 0 -39 -3 -37 -7z"/>
<path d="M3025 1490 c3 -5 13 -10 21 -10 8 0 14 5 14 10 0 6 -9 10 -21 10 -11
0 -17 -4 -14 -10z"/>
<path d="M3189 1483 c5 -10 16 -27 24 -37 14 -19 15 -19 31 12 9 17 16 33 16
37 0 3 -18 5 -40 5 -36 0 -40 -2 -31 -17z"/>
<path d="M1816 1449 c-63 -18 -61 -55 9 -128 30 -32 55 -67 55 -78 0 -29 -29
-51 -75 -56 l-40 -4 46 -1 c33 -2 50 3 62 16 31 34 21 69 -33 125 -41 42 -50
58 -48 82 3 26 8 31 38 35 19 3 31 8 25 11 -5 3 -23 2 -39 -2z"/>
<path d="M2901 1449 c-18 -4 -47 -21 -64 -37 -24 -25 -31 -41 -34 -84 -5 -63
9 -94 56 -125 34 -23 112 -32 138 -15 6 4 -17 7 -52 7 -60 0 -67 3 -97 33 -29
29 -33 39 -33 88 0 52 3 58 39 91 36 33 42 35 92 31 29 -3 51 -1 49 3 -7 11
-57 15 -94 8z"/>
<path d="M762 1313 c1 -76 3 -119 5 -95 l4 42 47 0 c44 0 48 -2 70 -41 13 -22
26 -38 29 -35 3 3 -5 22 -18 42 l-22 37 20 16 c32 27 45 60 38 98 -8 46 -53
73 -122 73 l-53 0 2 -137z m130 107 c53 -41 36 -121 -29 -140 -21 -7 -50 -10
-63 -8 -24 3 -25 6 -28 86 l-3 82 49 0 c34 0 57 -6 74 -20z"/>
<path d="M820 1360 c0 -33 3 -40 20 -40 16 0 40 26 40 44 0 10 -32 36 -46 36
-10 0 -14 -12 -14 -40z"/>
<path d="M1080 1315 l0 -135 63 2 62 2 -57 3 -58 4 0 59 0 60 53 2 52 1 -50 6
-50 6 -3 57 -3 57 58 4 58 3 -62 2 -63 2 0 -135z"/>
<path d="M1330 1315 l0 -135 50 0 c94 0 150 49 150 132 0 94 -47 138 -150 138
l-50 0 0 -135z m126 109 c42 -20 64 -59 64 -112 0 -69 -63 -122 -145 -122
l-35 0 0 125 0 125 41 0 c23 0 56 -7 75 -16z"/>
<path d="M1390 1315 c0 -67 2 -75 19 -75 10 0 29 8 41 18 47 38 18 132 -41
132 -17 0 -19 -8 -19 -75z"/>
<path d="M2033 1390 c0 -36 2 -50 4 -32 2 17 2 47 0 65 -2 17 -4 3 -4 -33z"/>
<path d="M2124 1378 c-32 -40 -66 -80 -75 -89 -23 -23 -28 -42 -19 -80 l8 -34
1 40 c1 28 10 50 29 73 l28 33 48 -70 c27 -39 53 -71 58 -71 5 0 -14 32 -42
72 -27 39 -50 75 -50 81 0 5 19 31 41 59 23 27 39 51 37 54 -3 2 -32 -28 -64
-68z"/>
<path d="M2380 1448 c0 -4 16 -36 35 -71 30 -55 35 -73 35 -130 0 -38 4 -67
10 -67 6 0 10 28 10 65 0 54 6 76 32 128 43 81 44 84 26 70 -8 -7 -25 -35 -38
-63 -13 -27 -26 -50 -30 -50 -4 0 -15 17 -24 38 -17 38 -55 93 -56 80z"/>
<path d="M3177 1383 c30 -54 39 -82 44 -138 l6 -70 1 68 c2 59 7 77 41 137 22
39 36 70 31 70 -6 0 -23 -27 -40 -60 -17 -33 -32 -60 -35 -60 -2 0 -18 27 -36
60 -17 33 -36 60 -41 60 -5 0 8 -30 29 -67z"/>
<path d="M3460 1315 l0 -135 60 0 c51 0 65 4 85 25 32 31 31 56 0 93 -22 26
-23 31 -10 42 21 17 19 73 -3 93 -13 12 -37 17 -75 17 l-57 0 0 -135z m124
109 c9 -8 16 -26 16 -39 0 -38 -26 -55 -81 -55 l-49 0 0 55 0 55 49 0 c32 0
55 -6 65 -16z m-9 -118 c31 -13 35 -20 35 -50 0 -45 -29 -66 -92 -66 l-48 0 0
58 c0 32 3 62 7 65 11 12 62 8 98 -7z"/>
<path d="M3510 1384 c0 -33 33 -30 38 4 3 17 -2 22 -17 22 -16 0 -21 -6 -21
-26z"/>
<path d="M3510 1250 c0 -23 5 -30 19 -30 10 0 24 6 30 14 17 20 3 46 -25 46
-20 0 -24 -5 -24 -30z"/>
<path d="M3760 1315 l0 -135 63 2 62 2 -57 3 -58 4 0 59 0 60 53 2 52 1 -50 6
-50 6 -3 57 -3 57 58 4 58 3 -62 2 -63 2 0 -135z"/>
<path d="M4022 1313 c1 -76 3 -119 5 -95 l4 42 44 0 c41 0 46 -3 67 -40 13
-22 27 -40 31 -40 5 0 -3 20 -17 43 l-25 44 29 22 c25 18 30 28 30 65 0 37 -5
48 -31 70 -25 21 -41 26 -85 26 l-54 0 2 -137z m117 112 c32 -16 41 -33 41
-74 0 -41 -38 -70 -98 -78 l-52 -6 0 87 0 86 40 0 c23 0 54 -7 69 -15z"/>
<path d="M4080 1360 c0 -33 3 -41 16 -38 9 2 22 11 28 21 13 20 -2 50 -28 55
-13 3 -16 -5 -16 -38z"/>
<path d="M1792 1074 c-39 -27 -29 -68 28 -127 42 -42 50 -57 48 -82 -3 -29 -5
-30 -56 -33 -64 -4 -67 -25 -4 -30 34 -3 47 2 67 22 39 39 33 68 -30 133 -67
69 -70 96 -12 101 24 2 37 8 37 18 0 19 -49 18 -78 -2z"/>
<path d="M2874 1076 c-123 -54 -101 -247 31 -272 45 -8 105 3 105 20 0 9 -15
11 -56 8 -88 -7 -134 31 -134 113 0 78 48 119 134 114 54 -4 69 6 32 21 -36
13 -74 12 -112 -4z"/>
<path d="M754 1077 c-2 -7 -3 -71 -2 -142 2 -92 7 -130 16 -133 8 -2 12 9 12
37 0 37 3 41 24 41 13 0 31 3 39 6 10 3 23 -10 41 -40 15 -25 31 -46 36 -46
15 0 12 11 -14 54 l-24 39 29 25 c54 45 33 136 -38 163 -37 14 -113 11 -119
-4z m141 -42 c53 -52 13 -125 -70 -125 l-45 0 0 75 0 75 45 0 c35 0 52 -6 70
-25z"/>
<path d="M814 1017 c-5 -15 2 -66 11 -75 2 -3 16 0 30 6 42 19 28 82 -17 82
-10 0 -21 -6 -24 -13z"/>
<path d="M1082 1082 c-9 -6 -12 -42 -10 -143 l3 -134 63 0 c74 0 84 19 12 23
l-50 3 0 50 0 49 50 0 c38 0 50 4 50 15 0 11 -12 15 -50 15 l-50 0 0 49 0 50
50 3 c28 2 50 8 50 13 0 12 -100 18 -118 7z"/>
<path d="M1325 1078 c-3 -8 -4 -72 -3 -144 l3 -129 62 1 c70 1 103 18 133 67
38 62 17 152 -44 192 -35 23 -144 33 -151 13z m135 -33 c38 -20 52 -46 52
-100 0 -24 -5 -53 -11 -64 -16 -29 -63 -51 -111 -51 l-40 0 0 115 0 115 40 0
c23 0 54 -7 70 -15z"/>
<path d="M1385 1018 c-3 -8 -5 -46 -3 -84 l3 -69 30 2 c85 6 87 139 3 159 -20
4 -29 2 -33 -8z"/>
<path d="M2020 945 c0 -90 4 -145 10 -145 6 0 10 17 10 38 0 25 9 47 28 70
l28 33 48 -70 c45 -66 66 -85 66 -61 0 6 -22 43 -50 82 l-50 71 45 53 c43 50
55 74 37 74 -5 0 -40 -39 -78 -86 l-69 -87 -3 87 c-5 145 -22 99 -22 -59z"/>
<path d="M2370 1085 c0 -15 42 -85 50 -85 16 0 12 20 -11 56 -18 30 -39 45
-39 29z"/>
<path d="M2510 1058 c-22 -36 -26 -58 -10 -58 8 0 50 70 50 85 0 16 -23 1 -40
-27z"/>
<path d="M2565 1020 c-3 -5 -1 -10 4 -10 6 0 11 5 11 10 0 6 -2 10 -4 10 -3 0
-8 -4 -11 -10z"/>
<path d="M2462 970 c-14 -23 -17 -170 -3 -170 5 0 11 33 14 73 2 39 7 82 12
95 9 27 -6 29 -23 2z"/>
<path d="M2426 965 c4 -8 10 -12 15 -9 11 6 2 24 -11 24 -5 0 -7 -7 -4 -15z"/>
<path d="M3140 1078 c0 -6 16 -40 35 -75 31 -56 35 -72 35 -134 0 -52 3 -70
13 -67 7 3 14 32 17 79 4 60 11 85 38 130 33 58 39 79 22 79 -5 0 -23 -27 -40
-60 -17 -33 -32 -60 -35 -60 -2 0 -18 27 -36 60 -30 56 -49 75 -49 48z"/>
<path d="M3458 1084 c-5 -4 -8 -70 -8 -146 l0 -138 54 0 c73 0 104 13 120 52
15 36 12 53 -16 84 -17 19 -17 22 -3 34 21 17 19 63 -4 91 -14 18 -31 23 -77
27 -32 2 -62 0 -66 -4z m130 -64 c4 -42 -16 -60 -70 -60 l-38 0 0 51 0 50 53
-3 c51 -3 52 -3 55 -38z m2 -100 c45 -45 14 -90 -60 -90 l-48 0 -4 55 -3 55
48 0 c34 0 53 -6 67 -20z"/>
<path d="M3510 1020 c0 -23 4 -30 20 -30 25 0 36 25 20 45 -21 25 -40 18 -40
-15z"/>
<path d="M3510 880 c0 -32 4 -40 18 -40 41 0 57 51 23 70 -33 17 -41 11 -41
-30z"/>
<path d="M3761 1081 c-8 -5 -11 -49 -9 -142 l3 -134 63 0 c74 0 84 19 12 23
l-50 3 0 50 0 49 50 0 c38 0 50 4 50 15 0 11 -12 15 -50 15 l-50 0 0 50 0 50
49 0 c50 0 76 14 44 24 -25 7 -98 5 -112 -3z"/>
<path d="M4017 1083 c-4 -3 -7 -69 -7 -145 0 -107 3 -139 13 -136 6 3 13 21
15 41 3 31 7 37 27 37 13 0 29 2 37 5 8 3 22 -12 37 -40 13 -25 30 -45 37 -45
19 0 18 4 -11 50 l-25 39 30 30 c52 52 35 127 -36 157 -35 15 -106 19 -117 7z
m131 -39 c16 -11 22 -25 22 -52 0 -20 -4 -42 -8 -48 -13 -19 -50 -34 -86 -34
l-36 0 0 75 0 75 43 0 c23 0 53 -7 65 -16z"/>
<path d="M4070 991 c0 -22 4 -42 8 -45 18 -11 52 7 58 30 8 30 -11 54 -42 54
-21 0 -24 -5 -24 -39z"/>
<path d="M1390 3390 c-9 -6 -10 -10 -3 -10 6 0 15 5 18 10 8 12 4 12 -15 0z"/>
<path d="M1345 3337 c-17 -18 -41 -47 -55 -65 -14 -17 -31 -32 -37 -32 -24 0
-13 -16 27 -43 40 -26 56 -23 44 7 -3 9 -1 16 6 16 6 0 9 4 6 8 -3 5 2 18 12
28 9 10 17 33 17 49 0 17 4 36 9 43 19 27 -1 19 -29 -11z m15 -17 c0 -5 -5
-10 -11 -10 -5 0 -7 5 -4 10 3 6 8 10 11 10 2 0 4 -4 4 -10z"/>
<path d="M3512 3358 c-17 -17 -15 -33 3 -18 15 12 17 10 19 -20 1 -8 7 -14 14
-12 7 1 12 -2 12 -8 0 -5 -5 -10 -11 -10 -8 0 -8 -4 1 -15 6 -8 9 -19 6 -24
-4 -6 -4 -21 0 -35 6 -26 3 -26 73 11 4 2 -34 57 -61 88 -9 11 -23 28 -30 38
-11 14 -16 15 -26 5z"/>
<path d="M1202 3300 c-7 -11 -8 -20 -3 -20 9 0 24 30 18 36 -1 2 -8 -6 -15
-16z"/>
<path d="M4670 2563 c0 -11 4 -11 23 -2 31 16 31 17 2 17 -15 0 -25 -6 -25
-15z"/>
<path d="M4586 2515 c-16 -12 -17 -15 -4 -15 9 0 18 7 22 15 7 18 6 18 -18 0z"/>
<path d="M3015 2479 c-6 -19 0 -38 9 -28 10 12 16 49 7 49 -5 0 -13 -9 -16
-21z"/>
<path d="M4550 2490 c0 -6 7 -10 15 -10 8 0 15 2 15 4 0 2 -7 6 -15 10 -8 3
-15 1 -15 -4z"/>
<path d="M4500 2449 c0 -5 5 -7 10 -4 6 3 10 8 10 11 0 2 -4 4 -10 4 -5 0 -10
-5 -10 -11z"/>
<path d="M3313 2270 c0 -30 2 -43 4 -27 2 15 2 39 0 55 -2 15 -4 2 -4 -28z"/>
<path d="M738 2263 c7 -3 16 -2 19 1 4 3 -2 6 -13 5 -11 0 -14 -3 -6 -6z"/>
</g>
</svg>
